<svg width="425" height="230" viewBox="0 0 425 230" fill="none" xmlns="http://www.w3.org/2000/svg">
<path d="M242.008 143.399H263.718V132.219H255.78V86.9182H242.008V143.399Z" fill="black"/>
<path d="M272.029 143.399H285.84V86.9182H272.029V143.399Z" fill="black"/>
<path d="M296.005 127.029C296.005 132.46 298.281 136.74 302.833 139.869C307.411 142.998 313.424 144.563 320.872 144.563C328.425 144.563 334.412 142.972 338.834 139.792C343.283 136.611 345.507 132.46 345.507 127.339C345.507 122.064 343.645 117.965 339.921 115.042C336.196 112.094 330.869 109.896 323.937 108.448C317.937 107.232 314.251 106.211 312.881 105.383C311.51 104.53 310.825 102.978 310.825 100.728C310.825 99.1764 311.613 97.8575 313.191 96.7714C314.795 95.6852 317.252 95.1421 320.562 95.1421C323.924 95.1421 326.446 95.8662 328.127 97.3144C329.808 98.7627 330.649 100.676 330.649 103.056V103.948H344.499V103.056C344.499 98.2972 342.339 94.224 338.02 90.8362C333.701 87.4484 327.894 85.7545 320.601 85.7545C313.204 85.7545 307.398 87.332 303.182 90.4871C298.992 93.6163 296.897 97.5989 296.897 102.435C296.897 107.4 298.565 111.254 301.902 113.995C305.264 116.736 310.32 118.805 317.071 120.202C323.873 121.598 327.998 122.775 329.446 123.732C330.92 124.663 331.632 126.201 331.58 128.348C331.58 130.365 330.662 132.007 328.825 133.275C326.989 134.542 324.338 135.175 320.872 135.175C317.433 135.175 314.743 134.49 312.803 133.119C310.889 131.749 309.932 129.719 309.932 127.029V126.137H296.005V127.029Z" fill="black"/>
<path d="M351.987 127.029C351.987 132.46 354.263 136.74 358.815 139.869C363.393 142.998 369.406 144.563 376.854 144.563C384.407 144.563 390.394 142.972 394.817 139.792C399.265 136.611 401.489 132.46 401.489 127.339C401.489 122.064 399.627 117.965 395.903 115.042C392.178 112.094 386.851 109.896 379.919 108.448C373.919 107.232 370.233 106.211 368.863 105.383C367.492 104.53 366.807 102.978 366.807 100.728C366.807 99.1764 367.595 97.8575 369.173 96.7714C370.777 95.6852 373.234 95.1421 376.544 95.1421C379.906 95.1421 382.428 95.8662 384.109 97.3144C385.79 98.7627 386.631 100.676 386.631 103.056V103.948H400.481V103.056C400.481 98.2972 398.321 94.224 394.002 90.8362C389.683 87.4484 383.876 85.7545 376.583 85.7545C369.186 85.7545 363.38 87.332 359.164 90.4871C354.974 93.6163 352.879 97.5989 352.879 102.435C352.879 107.4 354.547 111.254 357.884 113.995C361.246 116.736 366.302 118.805 373.053 120.202C379.855 121.598 383.98 122.775 385.428 123.732C386.902 124.663 387.614 126.201 387.562 128.348C387.562 130.365 386.644 132.007 384.807 133.275C382.971 134.542 380.32 135.175 376.854 135.175C373.415 135.175 370.725 134.49 368.785 133.119C366.871 131.749 365.914 129.719 365.914 127.029V126.137H351.987V127.029Z" fill="black"/>
<path d="M411.189 143.399H425V86.9182H411.189V143.399Z" fill="black"/>
<mask id="mask0_104_1434" style="mask-type:alpha" maskUnits="userSpaceOnUse" x="0" y="0" width="185" height="230">
<path fill-rule="evenodd" clip-rule="evenodd" d="M77.3005 1.18496C82.1256 0.404767 87.0721 0 92.1077 0C97.1433 0 102.09 0.404767 106.915 1.18496C150.746 8.27221 184.215 46.271 184.215 92.1005V137.899C184.215 183.769 150.688 221.794 106.8 228.833C102.011 229.602 97.1034 230 92.1077 230C87.1119 230 82.2038 229.602 77.4149 228.833C33.5272 221.794 0 183.769 0 137.899V92.1005C0 46.271 33.469 8.27222 77.3005 1.18496Z" fill="white"/>
</mask>
<g mask="url(#mask0_104_1434)">
<path fill-rule="evenodd" clip-rule="evenodd" d="M153.223 23.2164C140.639 39.0354 134.127 46.6325 122.631 59.5642C121.817 60.4807 121.022 61.3514 120.248 62.1992C117.244 65.4894 114.557 68.4337 112.25 72.3646C109.537 76.9882 107.398 83.0343 107.398 92.0479C107.398 100.161 110.395 105.489 114.311 111.842C114.513 112.169 114.719 112.501 114.927 112.838C118.7 118.922 123.454 126.591 123.454 137.358C123.454 153.09 112.112 166.259 97.0748 168.707C95.4358 168.973 93.7587 169.111 92.055 169.111C90.3514 169.111 88.6742 168.973 87.0353 168.707C71.9984 166.259 60.6564 153.09 60.6564 137.358C60.6564 133.424 60.6064 126.232 60.5559 119.228L60.5456 117.794C60.499 111.342 60.455 105.251 60.455 102.394C60.455 101.962 60.4546 101.533 60.4542 101.108C60.4483 95.1455 60.4432 89.8896 61.6062 85.4151C63.0529 79.8495 66.096 75.8806 70.6641 71.8204L80.6201 83.0199C77.3566 85.9206 76.5526 87.4818 76.1101 89.1845C75.4668 91.6594 75.4407 94.9757 75.4407 102.394C75.4408 105.194 75.4844 111.236 75.5313 117.734L75.5413 119.121C75.5915 126.098 75.6421 133.356 75.6421 137.358C75.6421 145.788 81.702 152.657 89.4433 153.917C90.2894 154.055 91.1613 154.127 92.055 154.127C92.9488 154.127 93.8207 154.054 94.6668 153.917C102.408 152.657 108.468 145.788 108.468 137.358C108.468 130.919 105.766 126.536 101.625 119.819L101.554 119.705C97.4426 113.035 92.4118 104.628 92.4118 92.0479C92.4118 80.3687 95.262 71.7047 99.3249 64.7811C102.512 59.3501 106.5 55.0029 109.581 51.6455C110.245 50.9209 110.868 50.2423 111.431 49.609C122.771 36.8529 129.104 29.4654 141.496 13.8882L153.223 23.2164Z" fill="black"/>
<path fill-rule="evenodd" clip-rule="evenodd" d="M104.523 15.9774C100.485 15.3246 96.339 14.9845 92.1077 14.9845V0C97.1433 0 102.09 0.404767 106.915 1.18496C112.222 2.04317 117.38 3.35505 122.345 5.07969L117.427 19.2344C113.276 17.7926 108.964 16.6954 104.523 15.9774ZM79.6927 15.9774C43.0036 21.9097 14.9857 53.7406 14.9857 92.1005V137.899C14.9857 176.293 43.0524 208.146 79.7885 214.038C83.7954 214.681 87.9098 215.015 92.1077 215.015V230C87.1119 230 82.2038 229.602 77.4149 228.833C33.5272 221.794 0 183.769 0 137.899V92.1005C0 46.271 33.469 8.27222 77.3005 1.18496L79.6927 15.9774ZM169.23 92.1005C169.23 87.0709 168.749 82.1607 167.834 77.411L182.548 74.5751C183.643 80.2545 184.215 86.1143 184.215 92.1005V120.947H169.23V92.1005ZM105.402 213.875C141.659 207.58 169.23 175.952 169.23 137.899H184.215C184.215 183.363 151.28 221.119 107.966 228.639L105.402 213.875Z" fill="black"/>
<path fill-rule="evenodd" clip-rule="evenodd" d="M120.765 2.45142L126.474 6.37594L117.579 19.3118L111.871 15.3873L120.765 2.45142Z" fill="black"/>
<path fill-rule="evenodd" clip-rule="evenodd" d="M92.0551 45.6672C66.065 45.6672 44.9571 66.8048 44.9571 92.9272V137.002C44.9571 147.169 48.1482 156.564 53.5783 164.264L41.3312 172.9C34.1756 162.753 29.9714 150.357 29.9714 137.002V92.9272C29.9714 58.5719 57.7458 30.6826 92.0551 30.6826C93.0362 30.6826 95.3321 30.8055 97.849 31.2357C100.057 31.6132 103.928 32.4513 106.898 34.6785L97.9067 46.6662C97.965 46.7099 97.9975 46.7299 97.997 46.7307C97.9959 46.7327 97.8237 46.6356 97.396 46.4946C96.8414 46.3118 96.1299 46.1438 95.324 46.006C94.5339 45.871 93.762 45.7833 93.1282 45.7304C92.8148 45.7042 92.5494 45.6877 92.3489 45.678C92.1735 45.6695 92.0774 45.6677 92.0571 45.6673C92.0524 45.6672 92.0518 45.6672 92.0551 45.6672ZM169.157 49.9648C165.964 53.5975 162.051 57.9839 159.794 60.2412C152.022 68.0122 147.713 72.7295 145.191 76.9691C142.949 80.7388 142.007 84.3386 142.007 90.2641C142.007 94.4089 143.69 97.9069 146.579 103.911C146.824 104.419 147.077 104.945 147.338 105.491C150.513 112.12 154.139 120.488 154.139 132.007V137.002C154.139 171.357 126.364 199.246 92.0551 199.246C79.4727 199.246 67.745 195.485 57.9559 189.024L66.2115 176.519C73.6285 181.414 82.4997 184.262 92.0551 184.262C118.045 184.262 139.153 163.124 139.153 137.002V132.007C139.153 123.903 136.713 118 133.822 111.963C133.536 111.366 133.235 110.751 132.925 110.118C130.292 104.736 127.022 98.0525 127.022 90.2641C127.022 82.2753 128.4 75.8854 132.312 69.3086C135.945 63.2018 141.626 57.2158 149.197 49.6455C151.047 47.796 154.627 43.7981 157.9 40.0734C159.502 38.2509 160.978 36.5538 162.054 35.3116C162.592 34.6909 163.029 34.1847 163.331 33.8342C163.482 33.659 163.6 33.5229 163.679 33.4308L163.796 33.2943L163.798 33.2929L169.481 38.1749C175.165 43.0573 175.165 43.0574 175.164 43.0576L175.164 43.0581L175.037 43.2054C174.955 43.3009 174.835 43.4407 174.68 43.6198C174.372 43.9778 173.927 44.4928 173.38 45.1233C172.289 46.3836 170.788 48.1085 169.157 49.9648Z" fill="black"/>
</g>
</svg>
